<?xml version="1.0" encoding="UTF-8" standalone="no"?>
<!DOCTYPE svg PUBLIC "-//W3C//DTD SVG 1.1//EN" "http://www.w3.org/Graphics/SVG/1.1/DTD/svg11.dtd">
<svg width="100%" height="100%" viewBox="0 0 994 364" version="1.1" xmlns="http://www.w3.org/2000/svg" xmlns:xlink="http://www.w3.org/1999/xlink" xml:space="preserve" style="fill-rule:evenodd;clip-rule:evenodd;stroke-linejoin:round;stroke-miterlimit:1.41421;">
    <g transform="matrix(1,0,0,1,-129.994,-90.7682)">
        <g transform="matrix(4.8867,0,0,4.8867,-1241.18,-723.185)">
            <path d="M308.031,201.653C310.411,201.653 312.434,201.287 314.1,200.556C315.766,199.825 317.118,198.848 318.155,197.624C319.192,196.4 319.94,194.972 320.399,193.34C320.858,191.708 321.087,189.991 321.087,188.189C321.087,186.795 320.883,185.528 320.475,184.389C320.067,183.25 319.43,182.281 318.563,181.482C317.696,180.683 316.608,180.063 315.299,179.621C313.99,179.179 312.451,178.958 310.683,178.958L304.767,178.958L301.962,201.653L308.031,201.653ZM312.213,166.565C316.769,166.565 320.654,167.049 323.867,168.018C327.08,168.987 329.706,170.322 331.746,172.022C333.786,173.722 335.274,175.736 336.209,178.065C337.144,180.394 337.611,182.919 337.611,185.639C337.611,188.359 337.246,190.951 336.515,193.416C335.784,195.881 334.721,198.142 333.327,200.199C331.933,202.256 330.233,204.075 328.227,205.656C326.221,207.237 323.926,208.538 321.342,209.558C322.362,210.136 323.297,210.841 324.147,211.674C324.997,212.507 325.711,213.519 326.289,214.709L337.101,240.872L322.107,240.872C320.713,240.872 319.549,240.591 318.614,240.03C317.679,239.469 317.007,238.696 316.599,237.71L308.541,215.729C308.133,214.811 307.623,214.148 307.011,213.74C306.399,213.332 305.481,213.128 304.257,213.128L300.534,213.128L297.117,240.872L280.593,240.872L289.671,166.565L312.213,166.565Z" style="fill:rgb(255,23,104);fill-rule:nonzero;"/>
            <path d="M354.849,240.872L338.121,240.872L347.199,166.565L363.927,166.565L354.849,240.872Z" style="fill:rgb(255,23,104);fill-rule:nonzero;"/>
            <path d="M430.686,198.95C430.686,202.996 430.227,206.829 429.309,210.45C428.391,214.071 427.082,217.437 425.382,220.548C423.682,223.659 421.617,226.464 419.186,228.963C416.755,231.462 414.035,233.596 411.026,235.364C408.017,237.132 404.736,238.492 401.183,239.444C397.63,240.396 393.898,240.872 389.988,240.872L363.264,240.872L372.444,166.565L399.168,166.565C404.03,166.565 408.408,167.389 412.301,169.038C416.194,170.687 419.5,172.957 422.22,175.847C424.94,178.737 427.031,182.154 428.493,186.098C429.955,190.042 430.686,194.326 430.686,198.95ZM413.652,199.358C413.652,196.332 413.304,193.586 412.607,191.121C411.91,188.656 410.873,186.557 409.496,184.823C408.119,183.089 406.427,181.746 404.421,180.794C402.415,179.842 400.12,179.366 397.536,179.366L387.54,179.366L381.624,228.071L391.62,228.071C395.02,228.071 398.08,227.399 400.8,226.056C403.52,224.713 405.832,222.801 407.736,220.319C409.64,217.837 411.102,214.828 412.122,211.292C413.142,207.756 413.652,203.778 413.652,199.358Z" style="fill:rgb(255,23,104);fill-rule:nonzero;"/>
            <path d="M454.809,179.366L452.616,197.318L473.628,197.318L471.996,209.66L451.086,209.66L448.791,228.071L476.484,228.071L474.852,240.872L430.482,240.872L439.662,166.565L483.93,166.565L482.298,179.366L454.809,179.366Z" style="fill:rgb(255,23,104);fill-rule:nonzero;"/>
        </g>
    </g>
</svg>
