<?xml version="1.0" encoding="UTF-8" standalone="no"?>
<!DOCTYPE svg PUBLIC "-//W3C//DTD SVG 1.1//EN" "http://www.w3.org/Graphics/SVG/1.1/DTD/svg11.dtd">
<svg width="100%" height="100%" viewBox="0 0 200 200" version="1.1" xmlns="http://www.w3.org/2000/svg" xmlns:xlink="http://www.w3.org/1999/xlink" xml:space="preserve" xmlns:serif="http://www.serif.com/" style="fill-rule:evenodd;clip-rule:evenodd;stroke-linejoin:round;stroke-miterlimit:1.41421;">
    <g transform="matrix(1.88765,0,0,1.88765,5.6191,5.61774)">
        <path d="M91.875,37.378L91.299,37.253C90.684,37.128 90.061,37.167 89.469,37.331C89.313,35.657 88.107,34.209 86.378,33.851L85.802,33.734C85.273,33.625 84.735,33.625 84.221,33.734C84.377,31.795 83.084,29.989 81.13,29.584L80.546,29.467C79.806,29.311 79.059,29.381 78.366,29.646C78.311,28.533 77.821,27.466 76.824,26.695C76.326,26.321 75.742,26.08 75.135,25.955L74.676,25.862C74.098,25.742 73.514,25.756 72.957,25.894C67.029,20.317 59.057,16.89 50.295,16.89C41.464,16.89 33.436,20.372 27.494,26.027C26.805,25.763 26.063,25.677 25.323,25.829L24.864,25.922C24.257,26.047 23.673,26.288 23.175,26.662C22.179,27.433 21.688,28.499 21.633,29.613C20.94,29.348 20.193,29.278 19.453,29.434L18.869,29.551C16.915,29.956 15.623,31.762 15.778,33.701C15.264,33.592 14.727,33.592 14.198,33.701L13.622,33.818C11.894,34.176 10.687,35.624 10.531,37.298C9.939,37.134 9.316,37.096 8.701,37.22L8.125,37.345C6.007,37.781 4.645,39.852 5.081,41.977L6.732,49.957L6.522,51.825C6.234,54.332 6.919,56.808 8.437,58.793C9.395,60.046 10.625,61.004 12.003,61.619L10.578,74.185L12.929,74.185L13.008,73.483L14.276,62.281C14.276,62.281 14.58,62.312 14.587,62.312C15.225,62.39 15.809,61.923 15.879,61.284C15.957,60.646 15.498,60.062 14.851,59.992C13.084,59.79 11.488,58.886 10.351,57.446L9.799,56.63C9.005,55.275 8.662,53.695 8.841,52.091L9.137,49.491L8.973,48.619L7.935,44.013L7.369,41.503C7.213,40.754 7.615,40.018 8.291,39.724C8.388,39.682 8.491,39.649 8.599,39.626L8.885,39.568L9.175,39.509C9.284,39.486 9.393,39.478 9.494,39.478C9.798,39.478 10.086,39.565 10.332,39.718C10.474,39.807 10.596,39.921 10.704,40.051C10.786,40.151 10.862,40.258 10.918,40.378C10.918,40.379 10.919,40.379 10.919,40.38C11.028,40.824 11.487,42.747 11.939,44.662C12.126,45.433 13.021,45.783 13.675,45.332C14.049,45.075 14.236,44.624 14.142,44.172L12.857,37.983C12.686,37.119 13.231,36.286 14.095,36.107L14.671,35.982C14.78,35.966 14.881,35.951 14.99,35.951C15.294,35.951 15.597,36.044 15.862,36.216C16.212,36.45 16.454,36.808 16.539,37.213L17.31,40.942C17.474,41.736 18.392,42.102 19.054,41.643L19.124,41.596C19.498,41.339 19.685,40.888 19.591,40.436L18.828,36.746C18.774,36.474 18.688,36.217 18.579,35.967L18.112,33.709C17.957,32.97 18.35,32.244 19.011,31.949C19.116,31.902 19.225,31.864 19.342,31.841L19.918,31.716C20.027,31.693 20.135,31.685 20.244,31.685L20.245,31.685C20.977,31.685 21.639,32.199 21.794,32.946L22.682,37.259C22.846,38.045 23.764,38.419 24.434,37.96L24.839,37.68C25.22,37.423 25.4,36.964 25.306,36.52L23.982,30.113C23.803,29.257 24.356,28.416 25.212,28.237L25.796,28.12C25.897,28.097 26.006,28.089 26.115,28.089C26.419,28.089 26.714,28.175 26.979,28.346C27.337,28.58 27.578,28.938 27.664,29.35L29.221,36.871C30.038,40.818 31.105,45.684 31.097,49.725C31.09,53.001 30.64,56.322 28.24,58.743C28.24,58.743 26.657,59.819 26.713,59.951C25.453,60.704 24.009,61.036 22.556,60.867L22.603,63.226C22.603,63.226 21.778,70.536 21.365,74.188L23.716,74.188L24.152,70.331C27.26,74.333 31.268,77.595 35.934,79.839C36.638,80.181 37.366,80.499 38.157,80.808C42.016,82.336 46.098,83.11 50.293,83.11C54.42,83.11 58.445,82.359 62.245,80.882L62.408,80.821C63.261,80.486 64.073,80.127 64.891,79.723C69.204,77.602 72.942,74.617 75.913,70.989L76.278,74.219L78.629,74.219C78.216,70.568 77.391,63.257 77.391,63.257L77.438,60.898C76.163,61.046 74.894,60.807 73.75,60.239C73.811,60.099 71.754,58.775 71.754,58.775C69.354,56.354 68.904,53.034 68.897,49.757C68.889,45.716 69.956,40.851 70.773,36.903L72.33,29.382C72.416,28.969 72.657,28.611 73.015,28.378C73.28,28.207 73.576,28.121 73.879,28.121C73.988,28.121 74.097,28.129 74.198,28.152L74.782,28.269C75.638,28.448 76.191,29.289 76.012,30.145L74.688,36.552C74.595,36.996 74.774,37.455 75.155,37.712L75.56,37.992C76.229,38.451 77.148,38.078 77.312,37.291L78.2,32.978C78.356,32.231 79.017,31.717 79.749,31.717L79.75,31.717C79.859,31.717 79.967,31.725 80.076,31.748L80.652,31.873C80.769,31.896 80.879,31.935 80.984,31.981C81.645,32.276 82.037,33.002 81.882,33.741L81.419,36C81.31,36.249 81.224,36.506 81.17,36.779L80.407,40.469C80.314,40.921 80.5,41.372 80.874,41.629L80.944,41.676C81.606,42.135 82.524,41.769 82.688,40.975L83.459,37.246C83.545,36.841 83.786,36.483 84.136,36.249C84.401,36.078 84.704,35.984 85.008,35.984C85.117,35.984 85.218,36 85.327,36.015L85.903,36.14C86.767,36.319 87.312,37.152 87.141,38.016L85.856,44.205C85.763,44.657 85.949,45.108 86.323,45.365C86.977,45.817 87.872,45.466 88.059,44.695C88.511,42.78 88.97,40.857 89.079,40.413C89.079,40.412 89.08,40.412 89.08,40.411C89.137,40.289 89.212,40.182 89.295,40.081C89.401,39.953 89.521,39.84 89.659,39.753C89.906,39.597 90.196,39.51 90.503,39.51C90.604,39.51 90.713,39.518 90.822,39.541L91.114,39.6L91.398,39.658C91.506,39.681 91.608,39.714 91.706,39.756C92.382,40.049 92.785,40.786 92.629,41.535L92.063,44.045L91.025,48.651L90.861,49.523L91.157,52.123C91.336,53.727 90.994,55.307 90.199,56.662L89.646,57.479C88.509,58.919 86.913,59.822 85.146,60.025C84.5,60.095 84.04,60.679 84.118,61.317C84.188,61.955 84.772,62.423 85.41,62.345C85.418,62.345 85.721,62.314 85.721,62.314L86.989,73.516L87.068,74.218L89.42,74.218L87.995,61.652C89.373,61.037 90.603,60.079 91.561,58.826C93.079,56.841 93.764,54.365 93.476,51.858L93.266,49.99L94.917,42.01C95.355,39.885 93.992,37.814 91.875,37.378ZM31.756,57.948C32.808,58.645 33.703,59.499 34.356,60.536C35.593,62.488 35.972,64.852 35.543,67.378C33.253,65.437 31.363,63.07 29.99,60.373C30.732,59.657 31.304,58.838 31.756,57.948ZM67.085,54.189C65.533,55.123 64.232,56.353 63.27,57.868C61.213,61.111 60.965,65.173 62.437,69.301C62.266,69.409 56.334,72.836 49.999,72.78C44.238,72.728 38.024,69.205 37.815,69.068C38.724,65.455 38.31,61.952 36.539,59.155C35.576,57.627 34.255,56.377 32.664,55.436C33.284,52.853 33.222,49.887 32.932,46.864C38.091,44.178 44.094,42.684 50.299,42.684C56.28,42.684 62.076,44.064 67.102,46.568C66.835,49.215 66.728,51.827 67.085,54.189ZM50.3,40.103C44.033,40.103 37.946,41.534 32.625,44.127C32.508,43.195 32.385,42.267 32.268,41.355C32.106,40.101 31.853,38.58 31.566,37.006C35.689,31.08 42.545,27.191 50.296,27.191C57.76,27.191 64.397,30.795 68.561,36.353C68.223,38.168 67.918,39.952 67.733,41.387C67.629,42.204 67.519,43.034 67.413,43.868C62.229,41.442 56.351,40.103 50.3,40.103ZM72.74,62.307C73.472,62.681 74.231,62.97 75.028,63.124L75.455,66.899C72.524,71.27 68.483,74.826 63.654,77.201C62.906,77.571 62.164,77.899 61.386,78.204L61.244,78.257C57.757,79.612 54.074,80.299 50.297,80.299C46.459,80.299 42.724,79.591 39.19,78.191C38.464,77.908 37.803,77.619 37.161,77.307C31.963,74.806 27.653,70.932 24.633,66.109L24.974,63.09C25.933,62.904 26.836,62.52 27.702,62.028C30.249,66.826 34.233,70.702 39.2,73.092C39.73,73.349 40.29,73.593 40.909,73.835C43.891,75.016 47.093,75.607 50.298,75.607C53.491,75.607 56.687,75.02 59.663,73.846L59.805,73.794C60.418,73.549 61,73.289 61.584,73C66.37,70.647 70.222,66.907 72.74,62.307ZM70.4,60.736C68.961,63.436 67.004,65.8 64.634,67.716C63.7,64.598 63.949,61.619 65.451,59.252C66.05,58.308 66.836,57.513 67.754,56.852C68.302,58.346 69.151,59.665 70.4,60.736ZM70.006,29.118C69.801,30.108 69.535,31.39 69.254,32.788C64.564,27.628 57.802,24.383 50.296,24.383C42.53,24.383 35.565,27.861 30.863,33.336C30.539,31.712 30.227,30.212 29.995,29.086C29.91,28.678 29.768,28.285 29.585,27.915C35.007,22.827 42.291,19.701 50.296,19.701C58.117,19.701 65.255,22.68 70.636,27.563C70.336,28.033 70.121,28.563 70.006,29.118Z" style="fill:rgb(255,63,107);fill-rule:nonzero;stroke:rgb(255,63,107);stroke-width:1.32px;"/>
    </g>
</svg>
