<?xml version="1.0" encoding="UTF-8" standalone="no"?>
<!DOCTYPE svg PUBLIC "-//W3C//DTD SVG 1.1//EN" "http://www.w3.org/Graphics/SVG/1.1/DTD/svg11.dtd">
<svg width="100%" height="100%" viewBox="0 0 200 200" version="1.1" xmlns="http://www.w3.org/2000/svg" xmlns:xlink="http://www.w3.org/1999/xlink" xml:space="preserve" xmlns:serif="http://www.serif.com/" style="fill-rule:evenodd;clip-rule:evenodd;stroke-linejoin:round;stroke-miterlimit:1.41421;">
    <g transform="matrix(2.97619,0,0,2.97619,28.5714,28.5713)">
        <path d="M41.5,10.9L32.3,10.9L32.3,8.3L32.3,4C32.3,1.8 30.5,0 28.3,0L7,0C4.8,0 3,1.8 3,4L3,44C3,46.2 4.8,48 7,48L28.3,48C30.5,48 32.3,46.2 32.3,44L32.3,29.3L41.5,29.3C43.4,29.3 45,27.7 45,25.8L45,14.5C45,12.5 43.4,10.9 41.5,10.9ZM5,4C5,2.9 5.9,2 7,2L28.3,2C29.4,2 30.3,2.9 30.3,4L30.3,7.3L5,7.3L5,4ZM30.3,44C30.3,45.1 29.4,46 28.3,46L7,46C5.9,46 5,45.1 5,44L5,40.7L30.3,40.7L30.3,44ZM30.3,38.7L5,38.7L5,9.3L30.3,9.3L30.3,10.9L22.8,10.9C20.9,10.9 19.3,12.5 19.3,14.4L19.3,25.7C19.3,27.6 20.9,29.2 22.8,29.2L23.8,29.2L23.8,34.4C24.1,35.9 25.3,35.3 25.5,35.1L30.4,30.8L30.4,38.7L30.3,38.7ZM43,25.8C43,26.6 42.3,27.3 41.5,27.3L31.7,27.3C31.5,27.3 31.2,27.4 31,27.6L25.7,32.3L25.7,28.4C25.7,27.8 25.3,27.4 24.7,27.4L22.7,27.4C21.9,27.4 21.2,26.7 21.2,25.9L21.2,14.5C21.2,13.7 21.9,13 22.7,13L41.4,13C42.2,13 42.9,13.7 42.9,14.5L42.9,25.8L43,25.8Z" style="fill:rgb(255,24,103);fill-rule:nonzero;stroke:rgb(255,24,103);stroke-width:0.34px;"/>
    </g>
    <g transform="matrix(2.5,0,0,2.5,36.65,48.75)">
        <path d="M16.7,44.1L18.5,44.1C19.1,44.1 19.5,43.7 19.5,43.1C19.5,42.5 19.1,42.1 18.5,42.1L16.7,42.1C16.1,42.1 15.7,42.5 15.7,43.1C15.7,43.7 16.2,44.1 16.7,44.1Z" style="fill:rgb(255,24,103);fill-rule:nonzero;"/>
    </g>
    <g transform="matrix(2.5,0,0,2.5,66.65,-21.25)">
        <path d="M16.7,44.1L18.5,44.1C19.1,44.1 19.5,43.7 19.5,43.1C19.5,42.5 19.1,42.1 18.5,42.1L16.7,42.1C16.1,42.1 15.7,42.5 15.7,43.1C15.7,43.7 16.2,44.1 16.7,44.1Z" style="fill:rgb(255,24,103);fill-rule:nonzero;"/>
    </g>
    <g transform="matrix(2.5,0,0,2.5,94.65,-21.25)">
        <path d="M16.7,44.1L18.5,44.1C19.1,44.1 19.5,43.7 19.5,43.1C19.5,42.5 19.1,42.1 18.5,42.1L16.7,42.1C16.1,42.1 15.7,42.5 15.7,43.1C15.7,43.7 16.2,44.1 16.7,44.1Z" style="fill:rgb(255,24,103);fill-rule:nonzero;"/>
    </g>
    <g transform="matrix(2.5,0,0,2.5,80.65,-21.25)">
        <path d="M16.7,44.1L18.5,44.1C19.1,44.1 19.5,43.7 19.5,43.1C19.5,42.5 19.1,42.1 18.5,42.1L16.7,42.1C16.1,42.1 15.7,42.5 15.7,43.1C15.7,43.7 16.2,44.1 16.7,44.1Z" style="fill:rgb(255,24,103);fill-rule:nonzero;"/>
    </g>
</svg>
