<?xml version="1.0" encoding="UTF-8" standalone="no"?>
<!DOCTYPE svg PUBLIC "-//W3C//DTD SVG 1.1//EN" "http://www.w3.org/Graphics/SVG/1.1/DTD/svg11.dtd">
<svg width="100%" height="100%" viewBox="0 0 200 200" version="1.1" xmlns="http://www.w3.org/2000/svg" xmlns:xlink="http://www.w3.org/1999/xlink" xml:space="preserve" xmlns:serif="http://www.serif.com/" style="fill-rule:evenodd;clip-rule:evenodd;stroke-linejoin:round;stroke-miterlimit:1.41421;">
    <g transform="matrix(1.73587,0,0,1.73587,13.2068,-1639.97)">
        <path d="M73.844,966.365C73.584,966.378 73.329,966.442 73.094,966.552L60.75,972.709C57.348,971.852 53.75,971.365 50,971.365C33.314,971.365 19.021,980.556 15.094,993.302C12.409,992.942 10,990.969 10,987.365C10.001,987.35 10.001,987.336 10.001,987.322C10.001,986.224 9.098,985.322 8,985.322C7.927,985.322 7.854,985.326 7.781,985.334C6.757,985.446 5.978,986.334 6,987.365C6,992.751 9.884,996.383 14.219,997.177C14.078,998.225 14,999.283 14,1000.37C14,1008.99 18.763,1016.62 26,1021.87L26,1036.37C26,1037.46 26.903,1038.37 28,1038.37L41,1038.37C41.901,1038.37 42.698,1037.76 42.938,1036.9L45.219,1028.99C46.796,1029.16 48.36,1029.37 50,1029.37C51.64,1029.37 53.205,1029.16 54.781,1028.99L57.063,1036.9C57.302,1037.76 58.1,1038.37 59,1038.37L72,1038.37C73.097,1038.37 74,1037.46 74,1036.37L74,1021.93C77.874,1019.13 81.032,1015.65 83.125,1011.68L92.5,1009.3C93.381,1009.08 94.001,1008.27 94,1007.37L94,994.365C94.001,993.455 93.381,992.655 92.5,992.427L83.688,990.209C81.682,985.878 78.448,982.111 74.375,979.084L75.969,968.646C75.983,968.551 75.99,968.456 75.99,968.36C75.99,967.262 75.087,966.36 73.989,966.36C73.941,966.36 73.892,966.361 73.844,966.365ZM71.438,971.865L70.25,979.615C70.14,980.367 70.468,981.121 71.094,981.552C75.429,984.528 78.692,988.383 80.469,992.677C80.704,993.263 81.203,993.703 81.813,993.865L90,995.927L90,1005.8L81.313,1007.99C80.74,1008.13 80.259,1008.52 80,1009.05C78.119,1013 74.96,1016.55 70.875,1019.3C70.328,1019.68 69.999,1020.3 70,1020.96L70,1034.37L60.531,1034.37L58.219,1026.33C57.948,1025.37 56.992,1024.75 56,1024.9C54.055,1025.18 52.044,1025.37 50,1025.37C47.956,1025.37 45.946,1025.18 44,1024.9C43.009,1024.75 42.053,1025.37 41.781,1026.33L39.469,1034.37L30,1034.37L30,1020.96C30.001,1020.3 29.673,1019.68 29.125,1019.3C22.224,1014.65 18,1007.86 18,1000.37C18,986.814 32.081,975.365 50,975.365C53.694,975.365 57.234,975.839 60.531,976.74C61.009,976.878 61.522,976.834 61.969,976.615L71.438,971.865ZM50,978.365C45.423,978.365 41.084,979.203 37.25,980.74C36.493,981.045 35.995,981.783 35.995,982.599C35.995,983.699 36.9,984.604 38,984.604C38.257,984.604 38.512,984.555 38.75,984.459C42.094,983.119 45.924,982.365 50,982.365C52.634,982.365 55.165,982.682 57.531,983.271C57.685,983.308 57.842,983.327 58,983.327C59.102,983.327 60.009,982.42 60.009,981.318C60.009,980.392 59.369,979.581 58.469,979.365C55.787,978.697 52.959,978.365 50,978.365ZM70,990.365C67.791,990.365 66,992.156 66,994.365C66,996.574 67.791,998.365 70,998.365C72.209,998.365 74,996.574 74,994.365C74,992.156 72.209,990.365 70,990.365Z" style="fill:rgb(255,63,107);fill-rule:nonzero;"/>
    </g>
</svg>
